<?xml version="1.0" encoding="utf-8"?>
<!-- Generator: Adobe Illustrator 22.1.0, SVG Export Plug-In . SVG Version: 6.00 Build 0)  -->
<svg version="1.1" id="Layer_1" xmlns="http://www.w3.org/2000/svg" xmlns:xlink="http://www.w3.org/1999/xlink" x="0px" y="0px"
	 viewBox="0 0 1920 1080" style="enable-background:new 0 0 1920 1080;" xml:space="preserve">
<style type="text/css">
	.st0{fill:#666666;}
</style>
<g>
	<path class="st0" d="M1130,378c-13.3,0-26.3,1.5-38.8,4.2C1062.5,251.1,945.7,153,806,153c-113.7,0-212.3,65-260.5,159.9
		c-15.6-4.5-32-6.9-49-6.9c-87.2,0-159.7,63.3-173.9,146.4C271.8,460.7,233,504.8,233,558c0,59.1,47.9,107,107,107
		c27.6,0,52.8-10.5,71.8-27.6c25.2,13.8,54,21.6,84.7,21.6c32.1,0,62.2-8.6,88.2-23.6C638.2,697.6,717.5,737,806,737
		c69.9,0,134-24.6,184.3-65.5c33,40.6,83.3,66.5,139.7,66.5c99.4,0,180-80.6,180-180S1229.4,378,1130,378z"/>
</g>
</svg>
